<svg width="36" height="36" viewBox="0 0 36 36" fill="none" xmlns="http://www.w3.org/2000/svg">
	<path d="M25.2744 8.91905C25.7572 8.9555 26.1884 9.18559 26.502 9.49913C26.8155 9.81269 27.0456 10.2439 27.082 10.7267C27.1197 11.2257 26.9445 11.7295 26.5332 12.1417L26.5342 12.1427L26.5156 12.1612C26.5038 12.1733 26.4865 12.191 26.4639 12.214C26.4179 12.2607 26.3506 12.3299 26.2646 12.4171C26.0929 12.5915 25.8471 12.8404 25.5518 13.1398C24.961 13.7386 24.1704 14.5382 23.374 15.3409C22.5781 16.1433 21.7747 16.9499 21.1572 17.5626C20.8488 17.8687 20.5847 18.1286 20.3906 18.3155C20.2941 18.4085 20.2116 18.4863 20.1484 18.5441C20.1174 18.5725 20.0863 18.5999 20.0586 18.6232C20.0573 18.6242 19.9824 18.6924 19.8906 18.7374C19.8059 18.779 19.6988 18.8101 19.6357 18.8282C19.5532 18.8519 19.4529 18.8779 19.3447 18.9044C19.1275 18.9577 18.8603 19.0176 18.5986 19.0704C18.3387 19.1229 18.0734 19.1706 17.8633 19.1993C17.7613 19.2133 17.6549 19.2256 17.5625 19.2286C17.5195 19.23 17.4524 19.2298 17.3809 19.2198C17.346 19.215 17.2842 19.2051 17.2139 19.1778C17.1701 19.1609 17.074 19.1189 16.9824 19.0284L16.8945 18.92C16.8229 18.8109 16.8011 18.7071 16.7949 18.6759C16.7858 18.6303 16.7819 18.5905 16.7803 18.5646C16.777 18.5117 16.7784 18.4592 16.7803 18.4181C16.7842 18.3329 16.7942 18.2312 16.8066 18.1271C16.832 17.9155 16.8736 17.6494 16.9209 17.3858C16.9682 17.1226 17.0235 16.8499 17.0791 16.628C17.1066 16.5185 17.1366 16.4097 17.1689 16.3165C17.1849 16.2705 17.2054 16.2175 17.2305 16.1651C17.2487 16.1271 17.2977 16.0278 17.3877 15.9376L23.8369 9.48839C23.8427 9.48259 23.8466 9.4777 23.8496 9.47472C23.8511 9.47322 23.8528 9.47255 23.8535 9.47179L23.8545 9.47081C24.2674 9.05674 24.7738 8.88129 25.2744 8.91905Z" fill="#E2E8F0" stroke="#45556C" stroke-width="1.3" />
	<path d="M22.3965 10.631L21.2686 11.7443C21.2681 11.7447 21.2675 11.7463 21.2666 11.7472C21.2647 11.749 21.2615 11.7514 21.2578 11.755C21.2504 11.7623 21.239 11.773 21.2246 11.7872C21.1958 11.8157 21.1536 11.8579 21.0996 11.9113C20.9914 12.0182 20.836 12.1716 20.6494 12.3566C20.2763 12.7264 19.7764 13.2229 19.2695 13.7296C18.7623 14.2366 18.2497 14.7529 17.8496 15.1622C17.6493 15.3672 17.4796 15.5438 17.3535 15.6779C17.2623 15.7749 17.2088 15.833 17.1836 15.8615C17.1748 15.8855 17.1643 15.9206 17.1504 15.9669C17.1162 16.0808 17.0755 16.2377 17.0322 16.4288C16.9459 16.8099 16.8541 17.2979 16.7803 17.7892C16.706 18.2831 16.652 18.7635 16.6377 19.1339C16.6342 19.2251 16.6336 19.3049 16.6348 19.3732C16.6965 19.3745 16.768 19.3747 16.8496 19.3722C17.2116 19.3609 17.6842 19.3113 18.1768 19.2433C19.0891 19.1173 19.9853 18.9398 20.2578 18.8751C20.2878 18.8539 20.3302 18.8223 20.3857 18.7775C20.5159 18.6724 20.6889 18.5221 20.8936 18.3361C21.3014 17.9653 21.8103 17.4776 22.3105 16.9894C22.8097 16.5022 23.2963 16.0179 23.6582 15.6554C23.8389 15.4744 23.9885 15.3241 24.0928 15.2189C24.1447 15.1664 24.1852 15.1249 24.2129 15.0968L24.2559 15.0538L25.3682 13.924V22.5001C25.3681 25.1024 23.428 27.086 20.8125 27.0861H13.5C10.891 27.0861 8.91312 25.1091 8.91309 22.5001V16.3126C8.91309 15.0394 9.38603 13.6399 10.249 12.5499C11.1204 11.4494 12.4205 10.631 14.0625 10.631H22.3965Z" fill="#E2E8F0" stroke="#45556C" stroke-width="1.3" />
</svg>
